# xmcd
#
# Track frame offsets: 
#        150
#        74025
#        141075
#        204150
#
# Disc length: 3678 seconds
#
# Revision: 1
# Processed by: cddbd v1.5.2PL0 Copyright (c) Steve Scherf et al.
# Submitted via: ExactAudioCopy v0.95b4
#
DISCID=390e5c04
DTITLE=The Hanover Band - Schubert Masterworks [CD 04) - Symphony 9
DYEAR=2004
DGENRE=Classical
TTITLE0=Symphony No. 9 in C major D944 'The Great' - 1. Andante-allegr
TTITLE0=o ma non troppo-piu moto
TTITLE1=Symphony No. 9 in C major D944 'The Great' - 2. Andante con mo
TTITLE1=to
TTITLE2=Symphony No. 9 in C major D944 'The Great' - 3. Scherzo:allegr
TTITLE2=o vivace
TTITLE3=Symphony No. 9 in C major D944 'The Great' - 4. Allegro vivace
EXTD=
EXTT0=
EXTT1=
EXTT2=
EXTT3=
PLAYORDER=
